<svg xmlns="http://www.w3.org/2000/svg" width="14" height="10" viewBox="0 0 14 10" fill="none">
<path d="M7.85892 9.05666V7.39399C7.85892 7.16839 8.09607 6.98567 8.38846 6.98567C9.43181 6.98567 9.99941 6.16057 10.0782 4.53181H8.38846C8.09611 4.53181 7.85892 4.34883 7.85892 4.12349V0.612683C7.85892 0.387168 8.09607 0.204444 8.38846 0.204444H12.8935C13.1858 0.204444 13.4231 0.387368 13.4231 0.612683V4.12352C13.4231 4.90423 13.3209 5.62065 13.1202 6.25337C12.9141 6.902 12.5977 7.46907 12.18 7.939C11.7504 8.42191 11.2125 8.80086 10.5823 9.06477C9.94736 9.33037 9.20924 9.46516 8.38824 9.46516C8.09611 9.46499 7.85892 9.28209 7.85892 9.05666ZM1.02943 6.98553C0.73708 6.98553 0.5 7.16839 0.5 7.39368V9.05669C0.5 9.28209 0.73708 9.46485 1.02943 9.46485C1.85003 9.46485 2.58852 9.33002 3.22309 9.06446C3.85362 8.80058 4.39138 8.42194 4.82093 7.93868C5.2389 7.46876 5.55527 6.90166 5.7614 6.25272C5.96217 5.61999 6.06416 4.90354 6.06416 4.12317V0.61234C6.06416 0.386826 5.82686 0.204102 5.53462 0.204102H1.02943C0.73708 0.204102 0.5 0.386997 0.5 0.61234V4.12317C0.5 4.34866 0.73708 4.5315 1.02943 4.5315H2.69543C2.61762 6.1604 2.0582 6.98553 1.02943 6.98553Z" fill="white"/>
</svg>